<?xml version="1.0" encoding="iso-8859-1"?>
<!-- Generator: Adobe Illustrator 19.0.0, SVG Export Plug-In . SVG Version: 6.00 Build 0)  -->
<svg xmlns="http://www.w3.org/2000/svg" xmlns:xlink="http://www.w3.org/1999/xlink" version="1.1" id="Capa_1" x="0px" y="0px" viewBox="0 0 455.661 455.661" style="enable-background:new 0 0 455.661 455.661;" xml:space="preserve" width="512px" height="512px">
<g>
	<g>
		<g>
			<path d="M437.326,1.337c-7.701,0-14.237,5.091-16.976,12.295c-31.774,16.545-105.611,53.97-160.012,74.721     c-101.857,38.935-190.729,49.138-190.729,49.138v146.617c0,0,30.415,3.538,75.886,14.172l0.69,136.629     c0.065,10.699,8.93,19.457,19.673,19.414l31.774-0.151c10.742-0.086,19.457-8.887,19.435-19.673l-0.647-116.568     c14.237,4.551,28.905,9.599,43.94,15.358c54.38,20.773,128.238,58.198,160.055,74.7c2.718,7.205,9.254,12.295,16.933,12.295     c10.074,0,18.314-8.758,18.314-19.543V20.902C455.64,10.138,447.378,1.337,437.326,1.337z" fill="#FFFFFF"/>
			<rect y="139.153" width="53.345" height="143.338" fill="#FFFFFF"/>
		</g>
	</g>
	<g>
	</g>
	<g>
	</g>
	<g>
	</g>
	<g>
	</g>
	<g>
	</g>
	<g>
	</g>
	<g>
	</g>
	<g>
	</g>
	<g>
	</g>
	<g>
	</g>
	<g>
	</g>
	<g>
	</g>
	<g>
	</g>
	<g>
	</g>
	<g>
	</g>
</g>
<g>
</g>
<g>
</g>
<g>
</g>
<g>
</g>
<g>
</g>
<g>
</g>
<g>
</g>
<g>
</g>
<g>
</g>
<g>
</g>
<g>
</g>
<g>
</g>
<g>
</g>
<g>
</g>
<g>
</g>
</svg>
